<svg width="255" height="236" viewBox="0 0 255 236" fill="none" xmlns="http://www.w3.org/2000/svg">
    <g clip-path="url(#clip0_31_24)">
        <path
            d="M172.883 83.3521L144.722 91.8625L120.222 101.87L113.368 103.545C111.622 105.081 109.792 106.638 107.812 108.214C105.641 109.947 103.619 111.523 102.065 112.666C100.341 113.926 97.7868 116.29 96.4885 117.787C94.5514 120.033 93.0188 122.417 92.3589 124.249C91.1881 127.559 91.7631 130.907 94.0193 134.001C96.9142 137.94 102.683 141.959 109.409 144.697C112.836 146.096 118.604 147.889 122.947 148.893C130.162 150.588 144.126 152.42 151.81 152.696C153.363 152.755 155.45 152.755 155.535 152.696C155.705 152.597 156.897 150.489 158.281 147.869C163.006 138.945 166.412 130.573 168.264 123.422C169.371 119.088 170.243 113.316 170.818 106.48C170.967 104.569 171.031 98.1669 170.903 95.9997C170.711 92.4539 170.371 89.5779 169.839 86.7607C169.754 86.347 169.732 85.9726 169.775 85.953C169.86 85.8939 170.115 85.8152 173.585 84.889L172.883 83.3527V83.3522H172.883V83.3521ZM166.455 86.8391C166.71 86.8391 167.391 92.8868 167.561 96.7089C167.604 97.5164 167.583 98.0483 167.54 98.0483C167.37 98.0483 163.943 96.1771 161.495 94.7587C159.367 93.5175 155.322 91.0353 154.684 90.5625C154.471 90.4247 154.492 90.4051 156.238 89.8533C159.196 88.9273 166.221 86.8391 166.455 86.8391ZM152.108 91.2126C152.3 91.2126 152.789 91.4684 153.96 92.1384C158.345 94.6796 164.305 97.7529 166.859 98.7774C167.647 99.0926 167.731 98.9742 165.922 100.117C162.048 102.56 157.216 104.963 151.299 107.386C150.256 107.819 149.383 108.154 149.362 108.154C149.32 108.154 149.447 107.662 149.617 107.071C151.043 102.165 151.852 97.2011 151.895 93.2218C151.916 91.2517 151.916 91.2517 152.108 91.1929C152.065 91.2126 152.087 91.2126 152.108 91.2126ZM149.15 92.2566C149.277 92.3746 149.192 96.7875 149.022 97.9891C148.638 100.865 148.042 103.544 147.064 106.559C146.829 107.287 146.616 107.898 146.574 107.937C146.488 108.036 143.572 105.396 142.615 104.372C140.954 102.599 139.656 100.826 138.698 99.0923C138.209 98.2058 137.442 96.4724 137.506 96.4132C137.847 96.1965 149.064 92.1779 149.15 92.2566ZM135.228 97.3193C135.25 97.3193 135.271 97.3193 135.292 97.3389C135.335 97.3784 135.484 97.6937 135.612 98.0482C136.293 99.7621 137.825 102.284 139.145 103.899C140.593 105.672 142.487 107.563 144.062 108.804C144.573 109.198 145.041 109.572 145.105 109.632C145.233 109.75 145.275 109.73 141.805 110.952C137.783 112.37 133.398 113.788 128.374 115.285C127.174 115.643 125.975 116.005 124.777 116.369C124.586 116.428 124.65 116.329 125.203 115.522C127.693 111.917 131.482 104.845 133.611 99.8408C133.973 98.974 134.334 98.1074 134.398 97.9103C134.484 97.6344 134.59 97.536 134.866 97.398C135.015 97.3589 135.165 97.3193 135.228 97.3193ZM130.972 98.9544C131.035 98.994 129.95 101.102 128.885 103.032C126.821 106.755 124.564 110.42 121.542 114.872C121.031 115.64 120.542 116.349 120.478 116.428C120.371 116.566 120.329 116.527 119.988 115.916C119.264 114.596 118.668 112.902 118.349 111.345C118.03 109.809 118.093 107.13 118.455 105.475C118.732 104.254 118.711 104.274 119.349 103.978C122.074 102.697 130.886 98.8756 130.972 98.9544ZM167.689 100.334V101.161C167.689 105.554 167.179 111.582 166.433 115.975C166.306 116.743 166.199 117.374 166.178 117.394C166.178 117.394 165.561 117.236 164.837 117.039C161.644 116.113 158.175 114.754 155.045 113.158C152.98 112.114 149.979 110.4 150.065 110.321C150.086 110.302 150.98 109.868 152.023 109.356C156.195 107.347 160.196 105.18 163.666 103.032C164.965 102.225 166.923 100.925 167.349 100.57L167.689 100.334ZM114.901 106.164C114.986 106.164 114.964 106.322 114.837 107.031C114.751 107.543 114.645 108.489 114.603 109.139C114.432 112.015 114.943 114.143 116.476 117.058C116.902 117.866 117.242 118.536 117.221 118.555C117.072 118.674 102.981 122.496 98.5531 123.618C97.2335 123.953 96.0843 124.249 95.9987 124.268C95.85 124.308 95.8286 124.288 95.8924 123.953C96.3819 121.057 98.766 117.275 102.086 114.083C104.3 111.956 106.067 110.715 109.09 109.119C111.261 107.977 114.603 106.263 114.858 106.184C114.858 106.164 114.879 106.164 114.901 106.164ZM148.106 111.661C148.128 111.641 148.638 111.897 149.256 112.232C153.811 114.675 160.154 116.94 165.56 118.103L166.05 118.201L165.369 118.555C162.538 120.013 153.236 123.599 143.722 126.889C142.338 127.361 140.976 127.834 140.72 127.933C140.464 128.031 140.23 128.09 140.23 128.071C140.23 128.051 140.614 127.361 141.103 126.514C143.764 121.904 146.446 116.29 147.808 112.39C147.979 112.015 148.085 111.68 148.106 111.661ZM144.722 112.685C144.744 112.705 144.573 113.119 144.36 113.591C142.508 117.748 140.081 122.279 136.974 127.362C136.186 128.662 135.526 129.706 135.505 129.706C135.484 129.706 134.845 129.351 134.079 128.918C129.566 126.357 125.565 123.205 122.947 120.151L122.563 119.718L124.5 119.225C131.439 117.472 137.335 115.581 143.189 113.257C144.019 112.941 144.701 112.685 144.722 112.685ZM165.752 119.482C165.773 119.935 164.688 123.993 163.794 126.928C163.049 129.39 162.41 131.321 161.24 134.729C160.729 136.226 160.282 137.467 160.26 137.467C160.239 137.467 160.112 137.448 159.984 137.408C153.662 136.344 148 134.867 142.679 132.897C141.188 132.345 139.06 131.459 138.932 131.36C138.89 131.321 140.167 130.769 141.785 130.119C151.47 126.199 161.516 121.747 164.965 119.836C165.369 119.6 165.688 119.482 165.752 119.482ZM117.2 121.018C117.242 121.057 114.539 124.663 110.75 129.568C109.43 131.282 107.898 133.291 107.323 134.04C106.748 134.788 105.876 135.97 105.386 136.679L104.492 137.96L103.534 137.211C102.406 136.344 100.448 134.493 99.5748 133.468C97.7441 131.361 96.5098 129.135 96.0202 127.106C95.786 126.16 95.786 125.687 95.9986 125.628C96.3178 125.549 102.001 124.308 107.323 123.165C110.282 122.535 113.708 121.787 114.943 121.511C116.178 121.235 117.178 121.018 117.2 121.018ZM119.924 121.984L120.605 122.693C123.67 125.864 126.799 128.209 130.588 130.257C131.27 130.612 131.78 130.927 131.737 130.947C131.589 131.046 118.583 135.32 112.559 137.251C109.175 138.354 106.386 139.24 106.365 139.24C106.344 139.24 106.152 139.122 105.939 138.984L105.556 138.728L106.173 137.901C108.174 135.222 110.686 132.286 116.157 126.18L119.924 121.984ZM136.91 133.232C136.931 133.212 137.868 133.527 139.017 133.922C141.785 134.887 143.977 135.497 146.914 136.187C150.533 137.034 155.769 137.862 158.856 138.098C159.324 138.137 159.58 138.177 159.494 138.236C159.345 138.315 156.216 139.28 153.917 139.95C150.256 141.013 139.081 144.067 129.971 146.49C128.289 146.943 126.842 147.317 126.757 147.337C126.544 147.377 125.841 147.199 125.841 147.12C125.841 147.081 126.352 146.47 126.97 145.801C130.035 142.412 133.079 138.63 135.612 135.044C136.314 134.059 136.91 133.252 136.91 133.232ZM133.164 133.331C133.185 133.35 131.674 135.596 129.035 139.457C127.906 141.092 126.65 142.944 126.203 143.594C125.777 144.224 125.139 145.209 124.777 145.761L124.16 146.766L123.841 146.687C123.074 146.49 117.689 144.736 116.263 144.205C114.496 143.554 112.665 142.767 111.303 142.097C109.6 141.25 107.472 139.989 107.642 139.95C107.685 139.93 110.601 139.201 114.113 138.315C123.436 135.97 128.608 134.611 131.993 133.626C132.61 133.449 133.142 133.311 133.164 133.331ZM159.664 139.083H159.686C159.771 139.28 156.323 148.145 155.066 150.942C154.79 151.572 154.684 151.73 154.535 151.71C154.173 151.691 149.171 151.041 146.127 150.627C140.827 149.878 131.929 148.44 129.694 147.967L129.184 147.869L132.355 147.199C139.166 145.78 142.444 145.012 145.765 144.067C149.958 142.885 154.109 141.407 158.302 139.595C158.962 139.319 159.515 139.102 159.664 139.083Z"
            fill="url(#paint0_linear_31_24)" />
        <path
            d="M143.849 22.5982C143.381 22.5394 135.824 25.0609 130.95 26.8928C124.373 29.3752 119.264 31.7393 116.114 33.7877C114.944 34.5563 113.474 35.9154 113.241 36.4472C113.156 36.6442 113.113 36.8806 113.113 37.117L115.965 39.6189L122.755 41.6282L138.911 44.3074L157.387 47.2428L157.579 45.7653C157.515 45.7653 157.472 45.7457 157.409 45.7457L154.982 45.3909L154.492 44.5833C151.981 40.4857 149.213 35.4031 147.596 31.9753C146.34 29.3158 145.148 26.243 144.488 24.0365C144.126 22.6969 144.084 22.6182 143.85 22.5985V22.5981H143.849V22.5982ZM143.508 23.6032H143.53C143.551 23.6226 143.636 24.1746 143.722 24.8243C144.083 27.5826 144.744 30.2417 145.786 33.118C146.574 35.285 146.574 35.1669 145.659 34.9107C143.488 34.3592 133.76 32.8029 126.715 31.8968C125.586 31.7588 124.628 31.621 124.628 31.6013C124.543 31.5226 129.716 29.0205 131.993 28.0358C134.909 26.7944 142.913 23.7016 143.508 23.6032ZM122.989 32.4286L123.82 32.6844C128.332 34.103 139.677 36.1124 145.935 36.5852C146.637 36.6443 147.234 36.7035 147.255 36.7035C147.276 36.7231 146.68 37.0187 145.914 37.3534C142.892 38.7521 139.571 40.4661 137.272 41.786C136.591 42.1798 135.973 42.4952 135.888 42.4952C135.803 42.4952 135.356 42.4164 134.888 42.3572L134.037 42.2389L131.908 40.3082C128.162 36.9397 125.225 34.3394 124.096 33.3542L122.989 32.4286ZM122.138 33.0391L125.139 36.5064C126.778 38.4173 128.438 40.2886 128.801 40.7022C129.162 41.1161 129.46 41.4512 129.439 41.4708C129.354 41.5298 125.097 40.7614 122.84 40.2888C120.52 39.7962 119.562 39.5598 118.136 39.1463L116.966 38.7915V38.5156C116.987 37.1956 118.796 35.2258 121.861 33.2166L122.138 33.0391ZM147.638 37.7671C147.723 37.7671 147.83 37.9444 148.085 38.4762C148.809 39.9536 151.065 43.9332 151.618 44.7013C151.789 44.9577 152.087 44.9773 149.086 44.5242C141.87 43.4404 139.55 43.0862 139.55 43.0468C139.55 43.0272 139.762 42.8892 140.039 42.7512C142.274 41.6089 144.53 40.1509 146.531 38.5946C147.021 38.2202 147.468 37.8657 147.553 37.8064C147.574 37.7671 147.617 37.7475 147.638 37.7671Z"
            fill="url(#paint1_linear_31_24)" />
        <path
            d="M113.389 36.1714C113.389 36.1714 112.921 36.8612 113.368 37.8856C113.645 38.5158 114.454 39.2839 115.369 40.0721C115.369 40.0721 124.841 48.6217 125.99 49.8432C131.226 55.4378 133.504 60.9538 133.717 68.558C133.845 73.4435 132.844 77.738 130.354 82.7221C125.926 91.6658 116.582 101.535 102.171 112.489L104.279 111.838C105.641 110.893 107.493 109.888 111.835 107.682C121.861 102.599 133.142 97.9302 146.978 93.1235C166.901 86.189 199.66 78.0726 218.306 75.4331L220.243 75.1571L219.945 74.7237C218.243 72.2809 217.072 70.7642 215.666 69.1488C211.58 64.4602 206.621 60.6583 200.554 57.5063C192.21 53.1922 181.418 49.8236 167.753 47.3217C165.177 46.8487 159.515 45.9426 154.917 45.2926C145.168 43.8942 138.868 42.9287 131.929 41.8255C129.439 41.4314 125.713 40.8405 123.244 40.3482C121.967 40.0918 119.519 39.56 117.604 38.9494C116.071 38.3975 113.857 37.8459 113.389 36.1714ZM118.881 41.0965C118.902 41.0771 119.243 41.1949 119.69 41.3329C120.499 41.5887 121.542 41.8843 122.776 42.1997C123.711 42.4375 124.647 42.6674 125.586 42.8891C126.863 43.1845 127.927 43.4603 127.949 43.4603C128.098 43.5983 130.248 49.9609 130.971 52.4037C131.248 53.3299 131.461 54.1177 131.44 54.1177C131.418 54.1377 131.184 53.8025 130.907 53.3495C128.417 49.2913 124.479 45.1741 119.924 41.8644C119.328 41.4708 118.881 41.1161 118.881 41.0965ZM129.354 43.7757C129.46 43.7757 129.928 43.8348 130.503 43.9529C134.121 44.7014 140.614 45.8441 144.764 46.4942C145.467 46.5926 146.02 46.7111 146.02 46.7502C146.02 46.7898 145.765 46.9275 145.445 47.0852C144.743 47.42 141.912 48.9761 140.976 49.5673C138.613 51.025 136.484 52.601 134.952 54.0193C134.334 54.5907 133.802 55.0634 133.802 55.0634C133.802 55.0634 133.675 54.7287 133.568 54.3147C132.802 51.5764 131.205 47.5182 129.758 44.6619C129.524 44.209 129.332 43.7952 129.332 43.7559C129.332 43.7953 129.332 43.7757 129.354 43.7757ZM147.787 47.0261C147.915 47.0654 148.127 47.7352 148.553 49.2126C149.341 52.0692 149.703 55.2606 149.575 58.2352C149.532 59.0626 149.49 59.8308 149.447 59.9295L149.383 60.1263L148.276 59.7915C145.999 59.1217 142.295 58.1168 139.124 57.2896C137.314 56.8365 135.846 56.4228 135.846 56.3835C135.846 56.2651 138.485 53.8224 139.613 52.8966C141.763 51.1431 147.595 46.9669 147.787 47.0261ZM149.256 47.2229C149.32 47.1641 158.068 48.5624 162.048 49.2717C165.007 49.8035 169.307 50.631 169.562 50.7297C169.69 50.7689 169.243 51.0053 167.817 51.5962C162.197 53.9407 158.025 56.0483 153.875 58.6095C152.789 59.2793 151.874 59.8308 151.853 59.8308C151.831 59.8308 151.81 59.2596 151.81 58.5701C151.81 54.8272 151.001 51.0448 149.511 47.8535C149.362 47.5383 149.234 47.2429 149.256 47.2229ZM171.882 51.36C171.946 51.4191 171.669 53.0149 171.414 53.9603C170.648 56.8956 168.583 61.2496 166.05 65.3468C165.603 66.0758 165.199 66.6668 165.156 66.6864C165.114 66.706 164.539 66.4104 163.879 66.0559C161.41 64.7163 158.6 63.4556 155.535 62.2734C154.684 61.9387 153.939 61.6627 153.917 61.6236C153.768 61.5053 160.622 57.3092 164.241 55.2999C167.114 53.6846 171.797 51.2811 171.882 51.36ZM173.5 51.5963C173.692 51.5963 177.566 52.5814 179.587 53.133C184.59 54.5121 190.337 56.4622 194.083 58.0382L195.637 58.6885L194.551 58.9247C185.399 60.8748 177.566 63.1209 170.009 65.9576C169.392 66.194 168.838 66.391 168.796 66.391C168.753 66.391 168.966 65.938 169.243 65.3862C171.521 60.9144 172.989 56.2456 173.351 52.266C173.372 51.8917 173.436 51.5963 173.5 51.5963ZM134.93 59.7915C134.994 59.7323 137.953 60.3826 139.549 60.7959C141.976 61.4265 147.127 63.022 147.127 63.1404C147.127 63.16 146.552 63.6131 145.871 64.1649C143.083 66.3121 140.401 68.5773 137.186 71.4536C136.229 72.301 135.42 72.9904 135.378 72.9904C135.335 72.9904 135.314 72.8719 135.335 72.7144C135.824 69.4047 135.718 65.1497 135.037 60.8355C134.973 60.2837 134.909 59.8111 134.93 59.7915ZM197.106 59.8508C197.148 59.8899 195.743 61.9387 194.85 63.1008C193.573 64.795 191.699 67.0412 187.463 71.966C185.229 74.5661 182.716 77.5016 181.887 78.4865C181.035 79.4715 180.333 80.2987 180.311 80.2987C180.29 80.2987 180.014 79.9443 179.715 79.511C177.331 76.2013 174.479 73.3054 171.094 70.7051C170.456 70.2125 169.754 69.6806 169.52 69.523C169.285 69.3655 169.094 69.2078 169.094 69.1882C169.094 69.1293 172.712 67.6909 175.458 66.6667C180.269 64.8542 186.824 62.6873 191.742 61.2885C194.317 60.5401 197.063 59.8112 197.106 59.8508ZM198.745 60.2445C198.83 60.2249 199.341 60.4613 199.958 60.7959C205.131 63.5342 210.196 67.0606 214.198 70.6854C215.326 71.7099 218.115 74.3891 218.072 74.4087C218.072 74.4087 217.093 74.4875 215.944 74.5661C206.982 75.1968 195.51 76.9497 184.483 79.4121C183.739 79.5696 183.079 79.7076 183.036 79.7076C182.994 79.7076 183.824 78.9394 184.867 78.0136C191.338 72.2416 194.297 68.5972 197.787 62.0961C198.276 61.1311 198.702 60.3037 198.745 60.2445C198.724 60.2445 198.724 60.2445 198.745 60.2445ZM151.341 64.7363C151.64 64.7951 154.407 65.9972 156.493 66.9622C158.408 67.8484 161.282 69.2671 161.431 69.3851C161.452 69.4047 160.43 69.8973 159.175 70.4687C155.173 72.3204 151.746 74.0735 148.17 76.0829C147.148 76.6543 146.297 77.1273 146.276 77.1273C146.191 77.1273 146.212 77.0481 146.787 76.0829C148.702 72.8525 150.235 68.9913 151.108 65.2285C151.192 64.9331 151.278 64.7363 151.341 64.7363ZM148.574 65.2089C148.638 65.2681 147.915 67.691 147.468 69.0109C146.595 71.5128 145.126 74.645 143.7 77.009C143.359 77.5603 142.849 78.3681 142.572 78.8211L142.04 79.6091L140.848 78.5456C139.464 77.3044 138.336 76.5361 136.889 75.8465C136.314 75.5709 135.867 75.3343 135.867 75.2951C135.867 75.1375 139.507 72.0841 142.295 69.8777C144.296 68.282 148.511 65.1498 148.574 65.2089ZM165.497 71.6508L166.54 72.281C168.923 73.7193 171.733 75.63 173.883 77.3044C175.096 78.2301 177.438 80.1807 177.906 80.6534L178.161 80.9098L176.438 81.3627C166.689 83.8643 159.153 86.0904 150.362 89.085C149.383 89.4197 148.553 89.6955 148.489 89.6955C148.362 89.6955 148.255 89.7939 150.448 87.9224C156.067 83.1358 161.048 77.8559 164.752 72.7143L165.497 71.6508ZM161.048 72.6751C161.09 72.7144 158.174 76.5163 156.429 78.6637C154.343 81.2247 150.639 85.5191 148.085 88.3163C147.021 89.4788 146.106 90.444 146.063 90.4638C145.999 90.4834 145.978 90.188 145.978 89.7349C145.978 87.351 145.318 84.8097 144.168 82.643C143.679 81.7368 143.594 81.52 143.7 81.4217C144.105 81.0866 150.299 77.8165 154.215 75.8664C156.855 74.5662 160.984 72.6357 161.048 72.6751ZM134.143 78.782C134.207 78.782 134.696 79.0182 135.25 79.2942C136.612 79.9836 137.825 80.7519 138.911 81.5795C138.953 81.6187 138.4 82.0326 137.676 82.5248C135.654 83.8643 132.589 86.0118 130.801 87.3317C128.928 88.7107 128.864 88.75 129.077 88.4546C130.482 86.4649 131.184 85.342 131.929 83.904C132.589 82.6237 133.249 81.1067 133.717 79.7868C133.887 79.2155 134.1 78.782 134.143 78.782ZM141.316 83.9826C141.422 83.9632 141.55 84.1402 142.125 84.9284C143.338 86.6025 144.275 88.8486 144.509 90.6609L144.551 91.0551L141.636 92.0992C136.42 93.9705 131.61 95.8224 128.353 97.2012C127.438 97.5953 125.841 98.3044 124.799 98.7775C123.755 99.2697 122.904 99.644 122.904 99.6244C122.904 99.6048 123.564 99.1516 124.373 98.5999C130.737 94.3253 136.25 89.6365 140.379 84.9481C140.827 84.4555 141.231 84.0023 141.273 83.9827L141.316 83.9826ZM138.017 84.7313C138.102 84.8101 135.676 87.3513 134.015 88.9075C129.907 92.7886 125.842 95.8224 120.797 98.7775C120.158 99.1516 119.584 99.4864 119.52 99.526C119.37 99.6048 119.562 99.4076 121.776 97.1815C123.181 95.7828 124.245 94.6009 125.458 93.1433C126.267 92.1782 126.416 92.0402 127.587 91.2716C130.716 89.1834 137.932 84.6524 138.017 84.7313Z"
            fill="url(#paint2_radial_31_24)" />
        <path
            d="M45.8432 166.302C45.4506 166.302 45.0578 166.336 44.6686 166.336C36.7376 166.727 31.3885 169.958 28.2609 176.266C25.586 181.971 25.8781 189.429 28.2909 195.169C31.0968 200.778 35.6306 203.738 43.1983 204.856C44.7995 205.099 45.8732 205.912 48.9744 209.263L52.7902 213.401H59.7108L55.1091 209.107C52.5653 206.753 50.5078 204.703 50.5078 204.523C50.5078 204.343 51.4809 203.949 52.6588 203.617C56.5419 202.529 59.7666 199.753 62.0223 195.498C63.8479 192.081 64.1099 191.024 64.3716 186.773C65.0563 174.119 57.8474 166.208 45.8428 166.298L45.8432 166.302ZM51.9108 199.393C48.544 200.902 43.6551 201.204 40.4639 200.12C37.1644 198.998 33.9697 195.827 32.5329 192.237C30.9356 188.311 31.1637 181.068 32.9893 177.806C35.9259 172.613 39.8092 170.224 45.484 170.224C53.901 170.224 58.6893 174.995 59.3141 183.962C59.808 191.448 57.0994 197.063 51.9144 199.39L51.9108 199.393ZM171.462 177.111C168.559 177.111 166.337 178.198 164.841 180.341L163.666 182.037V177.626H158.642V204.077H163.663V195.623C163.663 187.892 163.767 186.988 164.934 184.872C166.543 181.971 169.311 180.524 171.986 181.217L173.782 181.702V177.118H171.462V177.111ZM141.947 176.868C140.963 176.868 139.919 176.989 138.879 177.201C132.157 178.828 128.367 184.783 128.599 190.911C128.599 196.042 129.676 198.607 132.351 201.297C137.832 205.459 142.788 205.791 149.477 203.558C150.618 203.108 151.86 202.589 151.86 202.589V198.427L149.477 199.57C144.064 201.751 139.986 201.751 136.72 199.182C134.637 197.219 133.72 194.865 133.298 192.178H153.555V188.612C153.555 181.341 148.826 176.75 141.943 176.868H141.947ZM133.754 188.466C133.754 188.466 134.502 183.931 137.278 182.151C138.614 181.279 140.147 180.857 141.647 180.857C143.151 180.857 144.651 181.307 145.89 182.183C148.434 183.993 148.86 188.432 148.86 188.432H133.754V188.466H133.754ZM12.6351 183.696C7.18851 180.642 4.77185 178.44 5.06736 175.843C5.91264 168.659 15.5045 169.653 20.8164 172.371L20.8542 167.538C20.8542 167.538 17.9174 166.361 13.7088 166.298C7.25199 166.208 3.07715 168.168 1.12092 172.156C-1.75236 178.042 0.791774 182.48 9.98709 187.431C15.1494 190.211 17.4311 192.625 17.4311 195.256C17.4311 200.691 10.3497 202.589 3.04385 199.178C1.54028 198.486 0.268215 197.908 0.200937 197.908C-0.0611011 199.448 0.0739718 203.136 0.0739718 203.136C0.0739718 203.136 2.31863 204.008 5.68511 204.61C14.0344 206.151 21.6325 202.526 22.3507 196.64C22.9755 191.115 20.8166 188.217 12.6354 183.692L12.6351 183.696ZM215.927 176.806C214.946 176.806 213.906 176.93 212.821 177.142C206.107 178.769 202.324 184.724 202.583 190.852C202.583 195.976 203.656 198.517 206.331 201.204C211.812 205.369 216.768 205.705 223.491 203.468C224.628 203.018 225.866 202.506 225.866 202.506V198.338L223.487 199.487C218.063 201.661 213.985 201.661 210.731 199.092C208.636 197.133 207.727 194.806 207.304 192.088H227.527V188.522C227.527 181.286 222.798 176.692 215.915 176.813L215.927 176.806ZM207.734 188.404C207.734 188.404 208.49 183.876 211.262 182.061C212.593 181.186 214.127 180.763 215.627 180.763C217.123 180.763 218.631 181.213 219.87 182.092C222.414 183.903 222.84 188.373 222.84 188.373H207.738L207.734 188.404ZM115.648 183.755C110.202 180.708 107.792 178.499 108.084 175.902C108.929 168.714 118.521 169.712 123.833 172.43L123.871 167.597C123.871 167.597 120.934 166.419 116.725 166.364C110.269 166.274 106.094 168.234 104.134 172.222C101.265 178.107 103.842 182.546 113.007 187.497C118.162 190.274 120.444 192.656 120.444 195.287C120.444 200.723 113.366 202.651 106.06 199.209C104.564 198.517 103.292 197.946 103.217 197.946C102.955 199.486 103.09 203.174 103.09 203.174C103.09 203.174 105.309 204.015 108.664 204.648C117.021 206.192 124.623 202.571 125.338 196.685C125.959 191.187 123.804 188.29 115.648 183.761V183.755H115.648ZM245.446 177.048C242.543 177.048 240.295 178.139 238.825 180.282L237.65 181.971V177.568H232.626V204.012H237.646V195.557C237.646 187.83 237.747 186.922 238.918 184.811C240.527 181.913 243.295 180.462 245.97 181.158L247.765 181.642V177.048L245.446 177.048ZM75.6955 183.602V166.755H70.6305V204.07H91.9314V199.663H75.6957V183.602H75.6955ZM192.83 188.854L188.655 198.908L184.641 188.799L180.564 177.595H175.379C178.739 186.41 182.393 195.377 186.078 204.07C187.675 204.105 189.276 204.07 190.873 204.07L196.511 190.97L202.254 177.599H197.297C197.297 177.599 195.108 182.91 192.827 188.858L192.83 188.854ZM87.367 156.587C88.1826 156.587 88.8633 156.345 89.4245 155.825C89.9779 155.313 90.2698 154.71 90.2698 153.956C90.2698 153.201 89.9779 152.571 89.4245 152.086C88.8633 151.601 88.2161 151.359 87.4043 151.359C86.5816 151.359 85.9005 151.601 85.3468 152.113C84.7858 152.626 84.5313 153.256 84.5313 153.983C84.5313 154.745 84.7934 155.375 85.3468 155.853C85.8707 156.337 86.5516 156.58 87.367 156.58V156.587ZM85.5715 152.294C86.0577 151.844 86.6488 151.636 87.4044 151.636C88.1153 151.636 88.7065 151.844 89.2004 152.294C89.6867 152.744 89.9486 153.291 89.9486 153.956C89.9486 154.62 89.6867 155.195 89.2004 155.645C88.7067 156.095 88.1153 156.31 87.4044 156.31C86.6825 156.31 86.0951 156.102 85.609 155.645C85.1227 155.195 84.8608 154.62 84.8608 153.956C84.8608 153.291 85.0852 152.744 85.5715 152.294ZM86.7796 154.198H87.1088C87.341 154.198 87.569 154.406 87.7634 154.8L88.1566 155.617H88.7736L88.2875 154.71C88.0893 154.347 87.8949 154.135 87.6665 154.076C87.9546 154.014 88.1826 153.924 88.3474 153.744C88.5116 153.588 88.5716 153.377 88.5716 153.138C88.5716 152.861 88.4781 152.654 88.2801 152.501C88.0555 152.328 87.6963 152.235 87.2323 152.235H86.1927V155.617H86.7163V154.198L86.7796 154.198ZM86.7796 152.626H87.2362C87.5654 152.626 87.7974 152.688 87.9245 152.778C88.0481 152.868 88.0817 152.986 88.0817 153.201C88.0817 153.592 87.8195 153.776 87.3335 153.776H86.7725V152.626H86.7796ZM3.11061 153.897C3.11061 152.719 3.07335 151.844 3.04333 151.328H3.07335C3.20411 151.937 3.36506 152.391 3.49599 152.692L8.35896 162.746H9.17458L14.0375 152.602C14.1688 152.325 14.2998 151.909 14.4605 151.331H14.4978C14.4007 152.335 14.367 153.208 14.367 153.903V162.777H16.0314V149.586H13.9441L9.47388 158.761C9.30913 159.124 9.08091 159.668 8.7892 160.388H8.72157C8.62445 160.032 8.39623 159.488 8.07088 158.823L3.70128 149.555H1.48318V162.746H3.08422V153.903L3.11061 153.897ZM19.679 153.921H21.1159V162.137H19.679V153.921ZM20.3974 150.909C20.6968 150.909 20.9511 150.815 21.1455 150.632C21.3439 150.452 21.475 150.216 21.475 149.94C21.475 149.669 21.3775 149.427 21.1495 149.247C20.9475 149.064 20.6892 148.97 20.3937 148.97C20.1022 148.97 19.8403 149.064 19.6454 149.247C19.4477 149.427 19.3164 149.669 19.3164 149.94C19.3164 150.241 19.4175 150.452 19.6454 150.632C19.8704 150.815 20.102 150.909 20.3937 150.909H20.3974ZM31.3585 162.317V160.869C30.5727 161.413 29.7272 161.683 28.8519 161.683C27.8048 161.683 26.9552 161.351 26.3342 160.714C25.7171 160.084 25.388 159.208 25.388 158.117C25.388 156.975 25.7171 156.067 26.3978 155.375C27.0525 154.71 27.9019 154.378 28.942 154.378C29.7911 154.378 30.6062 154.621 31.3586 155.106V153.565C30.6741 153.232 29.8923 153.08 29.0093 153.08C27.378 153.08 26.1065 153.565 25.1563 154.5C24.2134 155.435 23.7271 156.705 23.7271 158.239C23.7271 159.603 24.1497 160.749 25.0292 161.625C25.9455 162.525 27.1169 162.982 28.5532 162.982C29.6637 162.954 30.5727 162.739 31.3585 162.317ZM35.4695 157.937C35.4695 156.853 35.7313 155.978 36.2176 155.375C36.6743 154.832 37.2277 154.558 37.8823 154.558C38.4361 154.558 38.8287 154.651 39.1166 154.863V153.291C38.8924 153.201 38.5668 153.17 38.1442 153.17C37.5568 153.17 37.0334 153.353 36.5732 153.689C36.0869 154.045 35.6979 154.589 35.4696 155.282H35.4324V153.353H33.8051V162.77H35.436V157.937H35.4695ZM44.833 162.957C46.3669 162.957 47.6014 162.5 48.5177 161.593C49.4303 160.693 49.8867 159.481 49.8867 157.971C49.8867 156.431 49.4681 155.254 48.615 154.378C47.7697 153.502 46.5948 153.079 45.0609 153.079C43.5269 153.079 42.2925 153.502 41.3761 154.319C40.3961 155.219 39.8798 156.49 39.8798 158.121C39.8798 159.54 40.2988 160.717 41.1819 161.593C42.0944 162.5 43.3028 162.954 44.833 162.954V162.957ZM42.5136 155.285C43.1346 154.679 43.9504 154.378 44.9601 154.378C46.0079 154.378 46.7934 154.679 47.3769 155.285C47.9642 155.919 48.2562 156.822 48.2562 158.031C48.2562 159.18 47.9942 160.084 47.4404 160.689C46.887 161.323 46.0714 161.659 44.9938 161.659C43.9465 161.659 43.1346 161.323 42.5136 160.689C41.8966 160.052 41.6009 159.18 41.6009 158.031C41.5374 156.888 41.8629 155.953 42.5136 155.285ZM57.0285 162.137C57.6494 161.624 57.9789 160.994 57.9789 160.205C57.9789 159.512 57.7167 158.938 57.2305 158.484C56.8338 158.121 56.2207 157.792 55.334 157.459C54.5481 157.155 54.0619 156.884 53.7999 156.673C53.5382 156.431 53.3773 156.13 53.3773 155.704C53.3773 155.313 53.542 155.011 53.8639 154.769C54.193 154.527 54.6121 154.409 55.1732 154.409C56.0523 154.409 56.8041 154.624 57.4922 155.078V153.568C56.8339 153.264 56.1194 153.118 55.3038 153.118C54.2565 153.118 53.3736 153.385 52.7224 153.9C52.0377 154.413 51.7126 155.078 51.7126 155.86C51.7126 156.552 51.9368 157.127 52.3631 157.549C52.7222 157.91 53.3362 158.277 54.1887 158.605C55.0045 158.938 55.5581 159.239 55.8534 159.481C56.1451 159.724 56.2761 160.025 56.2761 160.382C56.2761 161.261 55.6254 161.715 54.3533 161.715C53.3731 161.715 52.4944 161.417 51.7082 160.814V162.441C52.4192 162.836 53.2722 163.016 54.2148 163.016C55.4232 162.957 56.3694 162.684 57.0204 162.14L57.0285 162.137ZM64.7946 153.08C63.2605 153.08 62.0262 153.502 61.1097 154.319C60.1371 155.22 59.6134 156.49 59.6134 158.121C59.6134 159.54 60.0364 160.718 60.9153 161.594C61.8318 162.5 63.0363 162.954 64.5702 162.954C66.1412 162.954 67.3386 162.497 68.2549 161.59C69.1715 160.69 69.6278 159.478 69.6278 157.968C69.6278 156.428 69.2013 155.251 68.3557 154.375C67.4733 153.499 66.2982 153.076 64.8019 153.076L64.7946 153.08ZM67.9593 158.031C67.9593 159.18 67.6974 160.084 67.1438 160.69C66.5901 161.323 65.7745 161.659 64.697 161.659C63.6492 161.659 62.8377 161.323 62.2165 160.69C61.5995 160.053 61.304 159.18 61.304 158.031C61.304 156.819 61.6296 155.884 62.2843 155.254C62.9012 154.651 63.7171 154.347 64.7308 154.347C65.7407 154.347 66.5527 154.651 67.1397 155.254C67.6636 155.918 67.9555 156.822 67.9555 158.031H67.9593ZM72.3663 162.743H73.9936V154.589H76.3764V153.322H73.9934V151.868C73.9934 150.546 74.5468 149.881 75.6917 149.881C76.0771 149.881 76.4699 149.971 76.7618 150.123V148.763C76.4699 148.642 76.0771 148.614 75.5867 148.614C74.7077 148.614 73.9896 148.857 73.402 149.369C72.7174 149.971 72.3547 150.754 72.3547 151.813V153.357H70.6335V154.624H72.3547V162.747L72.3663 162.743ZM79.0509 160.174C79.0509 162.016 79.9304 162.954 81.7258 162.954C82.3769 162.954 82.8668 162.857 83.2596 162.642V161.347C82.9605 161.555 82.6049 161.652 82.2123 161.652C81.6589 161.652 81.2697 161.531 81.0413 161.257C80.8093 160.988 80.6786 160.53 80.6786 159.9V154.586H83.2594V153.319H80.6786V150.542C80.1174 150.722 79.5676 150.875 79.0473 151.027V153.318H77.2891V154.586H79.0473V160.17L79.0509 160.174ZM254.125 177.533C253.571 177.048 252.917 176.806 252.105 176.806C251.282 176.806 250.601 177.048 250.047 177.567C249.494 178.076 249.231 178.71 249.231 179.437C249.231 180.192 249.494 180.822 250.043 181.307C250.597 181.791 251.278 182.034 252.101 182.034C252.912 182.034 253.597 181.791 254.158 181.279C254.708 180.76 255 180.161 255 179.41C254.97 178.648 254.675 178.018 254.121 177.533L254.125 177.533ZM253.863 181.099C253.377 181.549 252.786 181.757 252.067 181.757C251.357 181.757 250.766 181.549 250.272 181.099C249.786 180.642 249.524 180.071 249.524 179.402C249.524 178.744 249.748 178.198 250.242 177.741C250.728 177.291 251.316 177.083 252.067 177.083C252.778 177.083 253.37 177.291 253.863 177.741C254.349 178.198 254.611 178.744 254.611 179.402C254.611 180.102 254.387 180.642 253.863 181.099ZM252.396 179.558C252.688 179.496 252.92 179.375 253.081 179.226C253.246 179.07 253.306 178.859 253.306 178.617C253.306 178.347 253.212 178.132 253.014 177.983C252.79 177.81 252.427 177.716 251.967 177.716H250.927V181.095H251.451V179.676H251.776C252.001 179.676 252.225 179.883 252.427 180.278L252.816 181.092H253.437L252.951 180.185C252.783 179.79 252.588 179.61 252.39 179.551L252.396 179.558ZM252.037 179.254H251.476V178.111H251.937C252.262 178.111 252.49 178.167 252.621 178.26C252.752 178.35 252.782 178.468 252.782 178.683C252.782 179.074 252.52 179.254 252.034 179.254L252.037 179.254ZM161.025 152.931H161.482V149.548H162.69V149.126H159.817V149.548H161.026V152.931H161.025ZM163.794 150.39C163.794 150.06 163.794 149.79 163.767 149.639C163.797 149.818 163.865 149.94 163.895 150.03L165.298 152.931H165.522L166.928 150.002C166.966 149.912 166.996 149.794 167.06 149.639C167.03 149.94 167.03 150.181 167.03 150.365V152.928H167.516V149.126H166.928L165.657 151.75C165.627 151.844 165.525 152.027 165.462 152.235H165.425C165.398 152.114 165.331 151.993 165.238 151.785L163.966 149.126H163.308V152.935H163.767V150.393L163.794 150.39Z"
            fill="white" />
    </g>
    <defs>
        <linearGradient id="paint0_linear_31_24" x1="112.954" y1="139.866" x2="122.714" y2="133.635"
            gradientUnits="userSpaceOnUse">
            <stop stop-color="#909CA9" />
            <stop offset="1" stop-color="#EDEDEE" />
        </linearGradient>
        <linearGradient id="paint1_linear_31_24" x1="113.187" y1="34.8819" x2="121.381" y2="34.8819"
            gradientUnits="userSpaceOnUse">
            <stop stop-color="#939FAB" />
            <stop offset="1" stop-color="#DCDEE1" />
        </linearGradient>
        <radialGradient id="paint2_radial_31_24" cx="0" cy="0" r="1" gradientUnits="userSpaceOnUse"
            gradientTransform="translate(154.532 69.66) rotate(-172.086) scale(10.547 19.5891)">
            <stop stop-color="#EE352C" />
            <stop offset="1" stop-color="#A91D22" />
        </radialGradient>
        <clipPath id="clip0_31_24">
            <rect width="255" height="236" fill="white" />
        </clipPath>
    </defs>
</svg>
    